<svg id="图层_1" data-name="图层 1" xmlns="http://www.w3.org/2000/svg" viewBox="0 0 432.56 54.75"><defs><style>.cls-3{fill:#231815;font-size:20px;font-family:AlibabaPuHuiTiM-GBpc-EUC-H,Alibaba PuHuiTi}</style></defs><path d="M217.05 45.81l-2.86-4.63h1.22l2.19 3.67h.07l2.17-3.67H221l-2.89 4.62v3.49h-1.05zm-7.59-.65a7.62 7.62 0 001-.05 1.61 1.61 0 00.66-.22 1 1 0 00.38-.48 2.33 2.33 0 00.12-.83 2 2 0 00-.12-.75 1 1 0 00-.38-.46 1.67 1.67 0 00-.66-.22 6.84 6.84 0 00-1-.06h-.91v3.06zm2.72 4.14L210 46h-1.4v3.26h-1.1v-8.08h2.06a7.22 7.22 0 011.44.12 2.35 2.35 0 011 .4 1.57 1.57 0 01.53.74 3.39 3.39 0 01.16 1.13 2.63 2.63 0 01-.41 1.6 2.05 2.05 0 01-1.25.73l2.43 3.39zm-11.11-.78a3.32 3.32 0 001.22-.19 1.53 1.53 0 00.73-.58 2.56 2.56 0 00.36-1 9.52 9.52 0 00.1-1.48 9.34 9.34 0 00-.1-1.46 2.61 2.61 0 00-.36-1 1.59 1.59 0 00-.73-.6 3.15 3.15 0 00-1.22-.2 3.11 3.11 0 00-1.2.2 1.59 1.59 0 00-.73.6 2.61 2.61 0 00-.36 1 9.31 9.31 0 00-.1 1.46 9.49 9.49 0 00.1 1.48 2.55 2.55 0 00.36 1 1.53 1.53 0 00.73.58 3.28 3.28 0 001.21.18zm0 .9a5.34 5.34 0 01-1.51-.19 2.41 2.41 0 01-1.09-.67 3 3 0 01-.67-1.28 9.41 9.41 0 010-4.06 3 3 0 01.67-1.28 2.39 2.39 0 011.09-.67 5.33 5.33 0 011.51-.19 5.4 5.4 0 011.52.19 2.35 2.35 0 011.09.67 3.08 3.08 0 01.66 1.28 9.39 9.39 0 010 4.06 3 3 0 01-.66 1.28 2.37 2.37 0 01-1.09.67 5.41 5.41 0 01-1.51.18zm-5.3-7.29h-2.36v7.18h-1.05v-7.2H190v-.94h5.79zm-8.49 3.82l-1.37-3.78h-.14l-1.39 3.78zm.34.94H184l-.89 2.42h-1.08l3.07-8.11h1.4l3.06 8.11h-1.11zm-10.82-1.72a7.62 7.62 0 001-.05 1.61 1.61 0 00.66-.22 1 1 0 00.38-.48 2.33 2.33 0 00.12-.83 2 2 0 00-.12-.75 1 1 0 00-.38-.46 1.67 1.67 0 00-.66-.22 6.84 6.84 0 00-1-.06h-.91v3.06zm2.72 4.14L177.3 46h-1.4v3.26h-1.05v-8.08h2.06a7.21 7.21 0 011.44.12 2.35 2.35 0 011 .4 1.57 1.57 0 01.53.74 3.4 3.4 0 01.16 1.13 2.63 2.63 0 01-.41 1.6 2.05 2.05 0 01-1.25.73l2.43 3.39zm-11.11-.78a3.32 3.32 0 001.22-.19 1.53 1.53 0 00.73-.58 2.56 2.56 0 00.36-1 9.52 9.52 0 00.1-1.48 9.35 9.35 0 00-.1-1.46 2.61 2.61 0 00-.36-1 1.59 1.59 0 00-.73-.6 3.15 3.15 0 00-1.22-.2 3.11 3.11 0 00-1.2.2 1.59 1.59 0 00-.73.6 2.61 2.61 0 00-.36 1 9.33 9.33 0 00-.1 1.46 9.51 9.51 0 00.1 1.48 2.56 2.56 0 00.36 1 1.53 1.53 0 00.73.58 3.28 3.28 0 001.22.17zm0 .9a5.34 5.34 0 01-1.51-.19 2.41 2.41 0 01-1.09-.67 3 3 0 01-.67-1.28 9.41 9.41 0 010-4.06 3 3 0 01.67-1.28 2.39 2.39 0 011.09-.67 5.33 5.33 0 011.51-.19 5.39 5.39 0 011.52.19 2.35 2.35 0 011.09.67 3.08 3.08 0 01.66 1.28 9.4 9.4 0 010 4.06 3 3 0 01-.66 1.28 2.37 2.37 0 01-1.09.67 5.4 5.4 0 01-1.5.17zm-9.25-1a7.59 7.59 0 001-.06 1.64 1.64 0 00.66-.22.84.84 0 00.34-.44 2.17 2.17 0 00.1-.71 1.71 1.71 0 00-.11-.64.94.94 0 00-.35-.43 1.74 1.74 0 00-.65-.25 5.4 5.4 0 00-1-.08h-1.09v2.83zm-.29-3.66a7.32 7.32 0 001-.06 1.88 1.88 0 00.68-.21.92.92 0 00.45-.5 1.56 1.56 0 00.12-.66 1.69 1.69 0 00-.12-.71.83.83 0 00-.39-.4 1.9 1.9 0 00-.68-.18h-1.8v2.67zM157 41.18h2.34a5.68 5.68 0 011.32.13 2 2 0 01.84.4 1.46 1.46 0 01.44.67 3.15 3.15 0 01.13 1 2 2 0 01-.27 1.08 1.54 1.54 0 01-.91.64 2.13 2.13 0 01.69.25 1.45 1.45 0 01.45.41 1.58 1.58 0 01.24.55 3 3 0 01.07.67 3.44 3.44 0 01-.13 1 1.62 1.62 0 01-.44.73 2 2 0 01-.85.45 5 5 0 01-1.34.15H157zm-4.53 4.76l-1.37-3.78h-.1l-1.39 3.78zm.34.94h-3.59l-.89 2.42h-1.03l3.07-8.11h1.4l3.06 8.11h-1.11zm-7.19 1.47v.95h-4.57v-8.12h1.05v7.17zm-12.41 1.06a6.59 6.59 0 01-1.59-.18 2.64 2.64 0 01-1.19-.64 3 3 0 01-.75-1.27 6.9 6.9 0 01-.26-2.09 6.24 6.24 0 01.27-2 3.19 3.19 0 01.77-1.29 2.86 2.86 0 011.23-.7 5.93 5.93 0 011.64-.21h.58l.58.06.53.1a3 3 0 01.43.13v.93a4.31 4.31 0 00-.93-.25 7.38 7.38 0 00-1.14-.08 4.75 4.75 0 00-1.21.14 2 2 0 00-.9.5 2.31 2.31 0 00-.56 1 5.64 5.64 0 00-.19 1.61 6.32 6.32 0 00.18 1.68 2.17 2.17 0 00.54 1 1.85 1.85 0 00.88.47 5.3 5.3 0 001.21.12h.66a3.56 3.56 0 00.66-.12v-2.49h-1.62v-.89h2.63v4.13a7.51 7.51 0 01-1.06.24 8.74 8.74 0 01-1.35.1zm-13.18-8.23h1.65l3.69 6.73h.07v-6.73h1.05v8.11h-1.39l-4-7.14h-.07v7.14h-1zm-4.2 0h1.05v8.11h-1.05zm-10.7 0h1.68l2.07 5.22h.12l2.07-5.22h1.66v8.11h-1.05v-7h-.07l-2.08 5.21h-1.15l-2.1-5.21h-.07v7h-1zm-5.44 8.23a6.59 6.59 0 01-1.59-.18 2.64 2.64 0 01-1.1-.64 3 3 0 01-.75-1.27 6.9 6.9 0 01-.26-2.09 6.24 6.24 0 01.27-2A3.19 3.19 0 0197 42a2.86 2.86 0 011.23-.7 5.93 5.93 0 011.64-.21h.58l.58.06.53.1a3 3 0 01.43.13v.93a4.31 4.31 0 00-.93-.25A7.37 7.37 0 0099.9 42a4.75 4.75 0 00-1.21.14 2 2 0 00-.9.5 2.31 2.31 0 00-.56 1 5.64 5.64 0 00-.23 1.59 6.31 6.31 0 00.18 1.68 2.17 2.17 0 00.54 1 1.85 1.85 0 00.88.47 5.3 5.3 0 001.21.12h.66a3.57 3.57 0 00.66-.12v-2.55h-1.58v-.89h2.63v4.13a7.49 7.49 0 01-1.06.24 8.74 8.74 0 01-1.38.1zm-13.13-8.23h1.65l3.69 6.73h.1v-6.73h1v8.11h-1.37l-4-7.14h-.07v7.14h-1zM82 45.93l-1.37-3.78h-.14l-1.39 3.78zm.34.94h-3.55l-.89 2.42h-1.08l3.07-8.11h1.4l3.06 8.11h-1.1zm-10.63 2.54a3.55 3.55 0 01-2.29-.63 2.59 2.59 0 01-.76-2.11v-5.49h1v5.26a3.83 3.83 0 00.11 1 1.33 1.33 0 00.34.63 1.4 1.4 0 00.63.34 3.65 3.65 0 00.95.1 3.83 3.83 0 001-.1 1.36 1.36 0 00.63-.34 1.28 1.28 0 00.33-.63 4.3 4.3 0 00.09-1v-5.26h1v5.49a2.58 2.58 0 01-.74 2.09 3.51 3.51 0 01-2.29.65zm-8.45 0a6.59 6.59 0 01-1.59-.18 2.64 2.64 0 01-1.19-.64 3 3 0 01-.75-1.27 6.9 6.9 0 01-.26-2.09 6.25 6.25 0 01.27-2A3.19 3.19 0 0160.5 42a2.86 2.86 0 011.23-.7 5.93 5.93 0 011.64-.21h.58l.58.06.53.1a3 3 0 01.43.13v.93a4.31 4.31 0 00-.93-.25 7.38 7.38 0 00-1.14-.06 4.75 4.75 0 00-1.21.14 2 2 0 00-.9.5 2.31 2.31 0 00-.56 1 5.64 5.64 0 00-.19 1.61 6.32 6.32 0 00.18 1.68 2.17 2.17 0 00.54 1 1.85 1.85 0 00.88.47 5.3 5.3 0 001.21.12h.66a3.56 3.56 0 00.66-.12v-2.57h-1.62v-.89h2.63v4.13a7.51 7.51 0 01-1.06.24 8.74 8.74 0 01-1.38.1zm143.05-32.32a23.48 23.48 0 01-3.64 2.81l2-.06 2.27-.06 2.35-.06 2.3-.06q-.42-.35-.78-.62l-.65-.49 1.41-1.44zm-8.21-5v1.66h18.43v-1.64zM221 30.35v3.35h-27.44v-3.35h11.82v-2h-8.69v-3.46h8.69V23l-4.06.13-3.13.13-1.44.1-.64-3.1a6.84 6.84 0 001.79-.83q.64-.38 1.45-1t1.71-1.37h-4.22v-2.87h-2.62V8.63h10.89l-.58-2.78 4.54-.19.57 3h10.73v5.56h-2.65v2.91H214q1.37 1.09 2.81 2.33t2.49 2.36l-2.33 2.78q-.67-.73-1.76-1.76h-2.48q-1.55 0-3.37.08v1.95h8.53v3.43h-8.53v2zm-54.51-3l-1.68.35-1.41.3-1.45.3-1.82.38-.32-3.7q1.21-.16 2.78-.46t3.7-.85zm8-7.83q.26.64.61 1.84t.69 2.52q.34 1.33.59 2.56t.35 1.87l-3.13 1q-.1-.7-.35-1.93t-.56-2.56q-.3-1.32-.61-2.54t-.53-1.88zm11.88.48q-.51 2.27-1.13 4.71t-1.49 4.9h3.45v3.74h-16v-3.71h9.26q1-2.72 1.58-5.21t1.13-5.17zM178 27.79q-.35-2.3-.73-4.2t-.93-3.72l3-.73a15.87 15.87 0 01.5 1.6q.27 1 .51 2.16t.45 2.19q.21 1.05.3 1.72zm.93-18.36a16.27 16.27 0 01-1.52 2.7 20.69 20.69 0 01-2.19 2.6h7.54a30.07 30.07 0 01-2.3-2.76 15 15 0 01-1.51-2.54zm-9.36 6.77q-.06.64-.11 1.25t-.11 1.15h1.5q-.13 3-.29 5.76t-.35 5.76a6.82 6.82 0 01-.29 1.64 2.67 2.67 0 01-.67 1.12 3 3 0 01-1.18.67 7.34 7.34 0 01-1.82.3l-2 .13-.86-3.26 2.11-.16a1.38 1.38 0 001.12-.46 3 3 0 00.32-1.33l.35-6.8H161q.29-2.71.53-5.43t.43-5.43l3.13.26q-.16 1.88-.27 3.69t-.27 3.53H166l.7-8.3H161V6.81h9.23q-.16 2-.29 4t-.29 3.8a21.48 21.48 0 004.57-4.26 23 23 0 003.16-5.25h2.87a18.37 18.37 0 001.57 2.9 28.72 28.72 0 002.18 2.93 26.58 26.58 0 002.57 2.68 17.1 17.1 0 002.78 2.08l-2.43 2.94q-.8-.64-1.55-1.34t-1.49-1.44v2.55H174V16q-.58.54-1.2 1.09t-1.36 1.12zM152.8 34.88q-1.09-.57-2.54-1.28t-3-1.42q-1.55-.72-3-1.37t-2.68-1.13a17.33 17.33 0 01-5 3 45.72 45.72 0 01-7.83 2.3L127 31a36.9 36.9 0 007.52-1.77 13.13 13.13 0 004.3-2.48h-11.5v-3.7h8.4l-1.47-.88-1.52-.89-1.42-.8-1.18-.62 1.63-3.13q.8.38 1.79.91t2 1.1q1 .57 1.93 1.13t1.56 1l-1.18 2.2H141a15 15 0 00.43-2.12q.14-1.1.24-2.32 0-.42.06-1.17t0-1.57v-2.7l4 .16v2.87q0 .86-.06 1.68t-.06 1.23q-.06 1.05-.18 2t-.3 1.9H154v3.7h-9.87q1.28.48 2.73 1.07l2.84 1.2q1.41.59 2.62 1.13t2 1zm-21.21-19.29h-3.83v-6.9h11l-.61-3 4.47-.19.61 3.19h10.51v7h-3.93v-3.36h-15.16l1.53.8q.86.45 1.76 1l1.74 1q.85.51 1.48.93l-1.63 3.42-1.53-1q-.89-.59-1.84-1.17t-1.85-1.09q-.91-.51-1.55-.83l1.63-3h-2.81zm-30 10.6v-5.58h-3.5v5.59zm14.69-4.38v-3.6h-5.56v3.61zm-18.19-10.5v5.43h3.55v-5.43zm12.68-.64v3.83h5.56v-3.83zm9.17-3.86v23.35a7.59 7.59 0 01-.21 2 2.51 2.51 0 01-.69 1.2 3 3 0 01-1.26.67 12 12 0 01-2 .35l-2.2.26-1.18-3.8 2.46-.26a2.73 2.73 0 001.13-.3q.3-.21.3-1v-3.72h-6a16.74 16.74 0 01-.77 2.73 15.27 15.27 0 01-1.17 2.41 18.15 18.15 0 01-1.6 2.25q-.91 1.1-2.06 2.25l-3.13-2.87 1.28-1.18q.57-.54 1.05-1.09h-9.31V7.41h10.54v21.15a9.88 9.88 0 001-2 11 11 0 00.57-2.28 24.7 24.7 0 00.24-2.92V6.81zm-54.48.54q.61.64 1.36 1.52t1.47 1.84q.72 1 1.34 1.87t1 1.55l-3 2.59q-.48-.72-1.1-1.72t-1.31-1.93q-.69-1-1.41-1.87t-1.29-1.5zm22.45 19.36q0 .8-.08 1.52t-.14 1.45a9.53 9.53 0 01-.46 2.12 3.15 3.15 0 01-.85 1.29 3.21 3.21 0 01-1.36.69 10.37 10.37 0 01-2 .27h-4.48a5.93 5.93 0 01-1.76-.34 2.68 2.68 0 01-1.13-.8 3.27 3.27 0 01-.65-1.35 9.1 9.1 0 01-.19-2v-8.83h-3.25v.16a26.6 26.6 0 01-.7 4.65 12 12 0 01-1.56 3.61 13.12 13.12 0 01-2.71 3 29.28 29.28 0 01-4.09 2.73l-3-3.48a33.8 33.8 0 003.69-2 9.87 9.87 0 002.41-2.12 8 8 0 001.39-2.7 17.36 17.36 0 00.62-3.71v-.1h-6.43v-4h10.7V5.91l4.12.16v10.64h4.22l-2.75-2.4q.61-.7 1.29-1.58t1.36-1.84q.67-1 1.28-1.95t1.08-1.84l3.1 2.36-1.07 1.64q-.59.9-1.24 1.9t-1.37 1.92q-.72 1-1.49 1.82h6.42v4h-8.08v7.63a1.38 1.38 0 00.34 1.12 2.5 2.5 0 001.26.32h1.57a7.06 7.06 0 001-.11 2 2 0 00.65-.24 1.15 1.15 0 00.4-.42 2 2 0 00.21-.67q.1-.61.14-1.2t.08-1.45z" transform="translate(-.14 -.25)" fill="#231815"/><path d="M45.42 13.78l1.1-1.93h.7l-1.52 2.57v1.81h-.64v-1.82l-1.57-2.56h.76zm-4.76-1.37V14h.68a1.17 1.17 0 00.73-.2.67.67 0 00.26-.56.69.69 0 00-.26-.57 1.14 1.14 0 00-.73-.21zm2.78 3.82h-.78l-1.2-1.72h-.8v1.72H40v-4.37h1.4a2 2 0 01.83.17 1.32 1.32 0 01.56.47 1.23 1.23 0 01.2.7 1.21 1.21 0 01-.24.74 1.33 1.33 0 01-.65.46zM35.57 14a2.18 2.18 0 00.16.88 1.35 1.35 0 00.46.59 1.2 1.2 0 00.7.21 1.21 1.21 0 00.71-.21 1.35 1.35 0 00.47-.59 2.19 2.19 0 00.16-.88 2.17 2.17 0 00-.16-.87 1.34 1.34 0 00-.47-.59 1.22 1.22 0 00-.7-.21 1.2 1.2 0 00-.7.21 1.35 1.35 0 00-.47.59 2.16 2.16 0 00-.16.87zm-.68 0a2.57 2.57 0 01.26-1.19 1.91 1.91 0 01.72-.79 2.06 2.06 0 012.06 0 1.91 1.91 0 01.72.79 2.83 2.83 0 010 2.39 1.91 1.91 0 01-1.75 1.1 2 2 0 01-1-.27 1.88 1.88 0 01-.72-.79 2.6 2.6 0 01-.29-1.24zm-3.81-2.18h3.34v.57h-1.35v3.81h-.65v-3.77h-1.34zm-1.27 2.68l-.69-1.8-.66 1.8zm-.39-2.64l1.76 4.37h-.7L30 15.06h-1.75l-.43 1.17h-.65l1.69-4.37zm-5.42.55V14h.68a1.16 1.16 0 00.73-.2.67.67 0 00.26-.56.69.69 0 00-.26-.57 1.14 1.14 0 00-.73-.21zm2.78 3.82H26l-1.2-1.72H24v1.72h-.64v-4.37h1.4a2 2 0 01.83.17 1.32 1.32 0 01.56.47 1.23 1.23 0 01.2.7 1.21 1.21 0 01-.24.74 1.33 1.33 0 01-.65.46zM19 14a2.19 2.19 0 00.16.88 1.36 1.36 0 00.46.59 1.2 1.2 0 00.7.21 1.21 1.21 0 00.68-.18 1.35 1.35 0 00.47-.59 2.18 2.18 0 00.16-.88 2.16 2.16 0 00-.16-.87 1.34 1.34 0 00-.47-.59 1.22 1.22 0 00-.71-.21 1.2 1.2 0 00-.7.21 1.35 1.35 0 00-.47.59A2.17 2.17 0 0019 14zm-.68 0a2.57 2.57 0 01.26-1.19 1.91 1.91 0 01.72-.79 2.06 2.06 0 012.06 0 1.91 1.91 0 01.72.79 2.83 2.83 0 010 2.39 1.91 1.91 0 01-1.78 1.1 2 2 0 01-1-.27 1.89 1.89 0 01-.72-.79 2.6 2.6 0 01-.3-1.24zm-2.49 1.63a1.31 1.31 0 00.76-.18.6.6 0 00.21-.45.61.61 0 00-.25-.52 1.27 1.27 0 00-.76-.19h-.9v1.41zm-.9-3.25v1.31h.72a1.19 1.19 0 00.7-.18.57.57 0 00.25-.48.54.54 0 00-.25-.47 1.23 1.23 0 00-.7-.17zm1.8 1.52a1 1 0 01.79 1 1.1 1.1 0 01-.41.92 1.88 1.88 0 01-1.19.33h-1.67v-4.29h1.45a1.79 1.79 0 011.12.32 1 1 0 01.42.88.93.93 0 01-.55.88zm-4.73.6l-.69-1.8-.66 1.8zm-.39-2.64l1.76 4.37h-.7l-.45-1.17h-1.74l-.43 1.17h-.64l1.69-4.37zm-5.5 0h.64v3.8h2.1v.57h-2.7zM45.45 8.5v-.57H47v1.74a1.42 1.42 0 01-.61.48 2.23 2.23 0 01-.93.19 2.13 2.13 0 01-1.1-.28 2 2 0 01-.76-.8 2.47 2.47 0 01-.28-1.18 2.42 2.42 0 01.28-1.17 2 2 0 01.76-.79 2.08 2.08 0 011.07-.28 1.92 1.92 0 011 .24 1.33 1.33 0 01.57.62l-.53.3a1.06 1.06 0 00-.47-.43 1.22 1.22 0 00-.64-.16 1.31 1.31 0 00-.73.21 1.38 1.38 0 00-.5.59 2 2 0 00-.18.87 2 2 0 00.19.88 1.38 1.38 0 00.53.59 1.47 1.47 0 00.79.21 1.13 1.13 0 00.86-.3V8.5zM39 5.89l2.33 3.25V5.89h.6v4.37h-.53L39.07 7v3.26h-.6V5.89zm-2.13 4.37h-.64V5.89h.64zm-2.74-4.37h.51v4.37H34V7.1l-1.29 2h-.36l-1.3-2v3.18h-.61V5.89H31l1.57 2.49zM27.55 8.5v-.57h1.53v1.74a1.42 1.42 0 01-.61.48 2.23 2.23 0 01-.93.19 2.13 2.13 0 01-1.1-.28 2 2 0 01-.76-.8 2.47 2.47 0 01-.27-1.18 2.42 2.42 0 01.28-1.17 2 2 0 01.76-.79 2.08 2.08 0 011.07-.28 1.92 1.92 0 011 .24 1.33 1.33 0 01.59.64l-.53.3a1.06 1.06 0 00-.41-.43 1.22 1.22 0 00-.64-.16 1.31 1.31 0 00-.73.21 1.38 1.38 0 00-.5.59 2 2 0 00-.18.87 2 2 0 00.19.88 1.39 1.39 0 00.53.59 1.47 1.47 0 00.79.21 1.13 1.13 0 00.86-.3V8.5zM21.1 5.89l2.33 3.25V5.89H24v4.37h-.5L21.17 7v3.26h-.6V5.89zm-3 2.64l-.69-1.8-.66 1.8zm-.39-2.64l1.76 4.37h-.7l-.49-1.16h-1.77l-.43 1.17h-.65l1.69-4.37zm-3.89 0h.65V8.5a2.15 2.15 0 01-.21 1 1.47 1.47 0 01-.6.64 2.13 2.13 0 01-1.89 0 1.47 1.47 0 01-.6-.64 2.15 2.15 0 01-.21-1V5.89h.65v2.48a1.58 1.58 0 00.29 1 1.15 1.15 0 001.65 0 1.58 1.58 0 00.29-1zM8.07 8.5v-.57H9.6v1.74a1.42 1.42 0 01-.61.48 2.23 2.23 0 01-.93.19A2.13 2.13 0 017 10.05a2 2 0 01-.76-.8 2.47 2.47 0 01-.27-1.18 2.42 2.42 0 01.24-1.17A2 2 0 017 6.1a2.08 2.08 0 011-.28 1.92 1.92 0 011 .24 1.33 1.33 0 01.59.64l-.53.3a1.06 1.06 0 00-.41-.43A1.22 1.22 0 008 6.41a1.31 1.31 0 00-.73.21 1.38 1.38 0 00-.5.59 2 2 0 00-.18.87 2 2 0 00.2.92 1.39 1.39 0 00.53.59 1.47 1.47 0 00.79.21A1.13 1.13 0 009 9.44V8.5zm33.27 25.16a14.77 14.77 0 11-14.77-14.77v7.58a7.18 7.18 0 000 14.37v-7.18zM38.78 31v.19l-.33 1.5h-.72l.41-1.5h-.25l.01-.19h.86zm-3 1.41a.44.44 0 01-.16.19.9.9 0 01-.25.12 1.54 1.54 0 01-.3.06h-.8a.85.85 0 01-.24-.06.24.24 0 01-.13-.12.22.22 0 010-.19l.6-1a.57.57 0 01.18-.19.93.93 0 01.24-.12l.27-.06h.69a.65.65 0 01.21.06.24.24 0 01.12.12.24.24 0 010 .19zm-.15-1.12h-.36l-.62 1.2H35zM33.14 31l-.14.19-1.07 1.5h-.71l1.15-1.5h-.25l.15-.19h.86zm-2.44 0l-.18.19-1.38 1.5h-.72l1.46-1.5h-.25l.17-.19h.86zm8.36-1.26a.37.37 0 01-.1.19.56.56 0 01-.18.12 1 1 0 01-.23.06h-.64a.62.62 0 01-.2-.06.24.24 0 01-.12-.12.25.25 0 010-.19l.38-1a.49.49 0 01.12-.19.59.59 0 01.18-.12l.2-.06H39a.47.47 0 01.17.06.27.27 0 01.11.12.29.29 0 010 .19zm-.24-1.12h-.28l-.37 1.2h.32zm-2.38 1.12a.52.52 0 01-.15.19.79.79 0 01-.21.12 1.11 1.11 0 01-.25.06h-.64a.49.49 0 01-.18-.06.17.17 0 01-.09-.12.29.29 0 01.06-.19l.65-1a.71.71 0 01.17-.19.85.85 0 01.21-.12l.22-.06h.53a.37.37 0 01.15.06.19.19 0 01.08.12.31.31 0 010 .19zm0-1.12h-.28l-.68 1.2h.32zm-1.63-.3l-.14.19-1.1 1.5H33l1.18-1.5H34l.16-.19h.66zm-1.67 0l-.18.19-1.38 1.5H31l1.46-1.5h-.19l.19-.19h.66zM40 25.65v.19l-.33 1.49h-.43l.41-1.49h-.14l.06-.19H40zm-1.58 1.41a.55.55 0 01-.12.19.57.57 0 01-.16.12l-.19.06h-.48a.29.29 0 01-.13-.06.16.16 0 01-.06-.12.38.38 0 01.06-.19l.55-1a.79.79 0 01.14-.19.65.65 0 01.16-.12l.16-.06h.37a.2.2 0 01.1.06.19.19 0 010 .12.44.44 0 010 .19zm.09-1.12h-.2l-.57 1.2h.23zm-1.86 1.12a.77.77 0 01-.17.19.81.81 0 01-.19.12l-.2.06h-.48a.22.22 0 01-.12-.06.13.13 0 010-.12.48.48 0 01.1-.19l.8-1a1.1 1.1 0 01.18-.19.91.91 0 01.18-.12l.17-.06h.37a.15.15 0 01.09.06.16.16 0 010 .12.53.53 0 01-.08.19zm.35-1.12h-.19l-.85 1.2h.23zm-2.12 1.12a1.09 1.09 0 01-.21.19 1.07 1.07 0 01-.22.12l-.21.06h-.5a.17.17 0 01-.11-.06.11.11 0 010-.12.66.66 0 01.15-.19l1-1a1.55 1.55 0 01.23-.19l.21-.12.18-.06h.37a.11.11 0 01.08.06.15.15 0 010 .12.7.7 0 01-.13.19zm.61-1.12h-.2l-1.13 1.2h.23zm4.79-1.56a.63.63 0 01-.07.19.41.41 0 01-.11.12.34.34 0 01-.12.06h-.32a.18.18 0 01-.09-.06.19.19 0 010-.12.53.53 0 010-.19l.38-1a1 1 0 01.09-.19.56.56 0 01.09-.12l.09-.06h.21a.12.12 0 01.06.06.28.28 0 010 .12.73.73 0 010 .19zm0-1.12h-.11l-.37 1.2h.15zm-.55-.3l-.09.19-.64 1.57h-.28l.76-1.5h-.08l.1-.19h.26zm-1.46 1.41a1.06 1.06 0 01-.15.19.72.72 0 01-.15.12l-.15.06h-.32a.1.1 0 01-.06-.06.16.16 0 010-.12.8.8 0 01.12-.19l.8-1 .17-.19.17-.18.11-.06H39a.07.07 0 010 .06.3.3 0 010 .12 1 1 0 01-.1.19zm.49-1.12h-.11l-.85 1.2h.15zm-1.64 1.12a1.47 1.47 0 01-.19.19l-.18.12-.16.06h-.29a.07.07 0 01-.05-.06.18.18 0 010-.12 1.15 1.15 0 01.16-.19l1-1 .21-.19.17-.12L38 23h.21a.05.05 0 010 .06.34.34 0 010 .12 1.32 1.32 0 01-.14.19zm2.74 8.35q.76-.47 1.45-.95-.66-.47-1.24-.94l-.54.1q.51.42 1.07.85-.64.42-1.33.85zm.29-2.64q.61-.47 1.16-.95-.51-.47-1-.95l-.42.1q.38.42.81.85-.51.42-1.07.85zm.29-2.64q.47-.47.87-.95a11.4 11.4 0 01-.66-.94l-.3.1q.25.42.55.85-.38.42-.82.85zm.29-2.64a10.71 10.71 0 00.58-.95 7.93 7.93 0 01-.38-.95l-.17.1a7.56 7.56 0 00.3.85q-.25.42-.56.85zm-12.95 7c-.08.08-.14.11-.19.11a.15.15 0 01-.12-.1.77.77 0 01-.06-.24 3.08 3.08 0 010-.31v-.59a2.25 2.25 0 01.06-.35 1.48 1.48 0 01.12-.32.77.77 0 01.19-.24l1-.88a.27.27 0 01.19-.09.15.15 0 01.12.09.65.65 0 01.06.21 2.16 2.16 0 010 .26v.49a2 2 0 01-.06.31 1.56 1.56 0 01-.12.3 1 1 0 01-.19.27zm1.14-1.8a.12.12 0 00.08 0 .44.44 0 000-.1v-.21a.22.22 0 000-.08l-1.19 1.08a.1.1 0 000 .06.47.47 0 000 .11V31a.31.31 0 000 .1zm-1.12-1.49c-.08.06-.14.08-.19.06a.21.21 0 01-.12-.13.9.9 0 01-.06-.26v-.87a2 2 0 01.07-.31 1.17 1.17 0 01.12-.29.53.53 0 01.19-.2l1-.61a.22.22 0 01.19 0 .22.22 0 01.12.12.78.78 0 01.06.22 2.28 2.28 0 010 .27v.2a2.89 2.89 0 010 .29 1.75 1.75 0 01-.06.3 1.22 1.22 0 01-.12.27.72.72 0 01-.19.22zM28.92 27a.42.42 0 000-.1v-.21a.25.25 0 000-.08l-1.19.77a.08.08 0 000 .05.44.44 0 000 .11v.23a.33.33 0 000 .1zm.29-2.47l-.19.09-1.49.73v-.78L29 24v-.27l.19-.08v.94zm-1.41-1.67a.2.2 0 01-.19 0 .39.39 0 01-.12-.18 1.16 1.16 0 01-.06-.28v-.87a1.56 1.56 0 01.06-.31.71.71 0 01.12-.24.29.29 0 01.19-.11l1-.16a.23.23 0 01.19 0 .41.41 0 01.12.17 1 1 0 01.06.25 2.47 2.47 0 010 .27v.2a2.7 2.7 0 010 .28 1.36 1.36 0 01-.06.27.74.74 0 01-.12.22.38.38 0 01-.19.13zm1.12-1a.36.36 0 000-.1v-.21a.28.28 0 000-.09l-1.19.25a.39.39 0 000 .1V22a.38.38 0 000 .1zm1.56 7.32a.37.37 0 01-.19.13.11.11 0 01-.12-.06.43.43 0 01-.06-.18 1.91 1.91 0 010-.24v-.19a2.58 2.58 0 010-.27 1.63 1.63 0 01.06-.29 1.26 1.26 0 01.12-.27.85.85 0 01.19-.23l1-.88a.39.39 0 01.19-.1.12.12 0 01.12 0 .33.33 0 01.06.15 1.27 1.27 0 010 .2v.16a1.93 1.93 0 010 .23 1.4 1.4 0 01-.06.25 1.36 1.36 0 01-.12.26 1.19 1.19 0 01-.19.25zm1.12-1.65v-.05a.28.28 0 000-.08v-.2a.12.12 0 000-.06l-1.2 1.09a.11.11 0 000 .05.32.32 0 000 .09v.18a.18.18 0 000 .07zm-1.12-1a.28.28 0 01-.19.08.16.16 0 01-.12-.09.53.53 0 01-.06-.2 2.05 2.05 0 010-.25v-.19a2.43 2.43 0 010-.26 1.38 1.38 0 01.06-.27 1 1 0 01.12-.24.58.58 0 01.19-.18l1-.61a.3.3 0 01.19-.06.17.17 0 01.12.08.41.41 0 01.06.16 1.36 1.36 0 010 .2v.15a1.83 1.83 0 010 .22 1.18 1.18 0 01-.06.24 1 1 0 01-.12.23.8.8 0 01-.19.2zm1.12-1.37a.25.25 0 000-.08v-.16a.14.14 0 000-.06l-1.19.77a.29.29 0 000 .09v.18a.21.21 0 000 .08zm.29-1.94l-.19.09-1.49.73v-.62l1.49-.64v-.18l.19-.08v.72zM30.48 22a.23.23 0 01-.19 0 .3.3 0 01-.12-.14.75.75 0 01-.06-.22 2.2 2.2 0 010-.25v-.19a2.28 2.28 0 010-.26 1 1 0 01.06-.25.55.55 0 01.12-.19.32.32 0 01.19-.1l1-.16a.28.28 0 01.19 0 .31.31 0 01.12.13.6.6 0 01.06.19 1.51 1.51 0 010 .21V21a1.66 1.66 0 010 .22.85.85 0 01-.06.21.6.6 0 01-.12.18.42.42 0 01-.19.12zm1.12-.88a.23.23 0 000-.07v-.15a.16.16 0 000-.07l-1.19.25a.26.26 0 000 .08v.18a.24.24 0 000 .08zm1.55 5.31a.56.56 0 01-.19.14.11.11 0 01-.12 0 .21.21 0 01-.06-.12 1 1 0 010-.18v-.14a1.55 1.55 0 010-.2 1.14 1.14 0 01.06-.23 1.06 1.06 0 01.12-.23 1 1 0 01.19-.21l1-.88a.6.6 0 01.19-.12.13.13 0 01.12 0 .14.14 0 01.06.09.58.58 0 010 .13v.11a1 1 0 010 .17.92.92 0 01-.06.19 1.29 1.29 0 01-.12.21 1.48 1.48 0 01-.19.23zM34.27 25a.16.16 0 000-.06v-.11l-1.19 1.08a.21.21 0 000 .07v.19zm-1.12-.44a.42.42 0 01-.19.09.13.13 0 01-.12 0 .29.29 0 01-.06-.14 1.1 1.1 0 010-.18v-.14a1.5 1.5 0 010-.2 1 1 0 01.06-.21.79.79 0 01.12-.2.68.68 0 01.19-.16l1-.61a.45.45 0 01.19-.07.15.15 0 01.12 0 .2.2 0 01.06.1.63.63 0 010 .14v.11a1 1 0 010 .16.75.75 0 01-.06.18.91.91 0 01-.12.19 1 1 0 01-.19.18zm1.12-1.21a.15.15 0 000-.06v-.11l-1.19.78A.19.19 0 0033 24v.14a.1.1 0 000 .05zm.29-1.42l-.19.09-1.49.73v-.47l1.49-.64v-.14l.19-.08v.48zm-1.41-.69a.31.31 0 01-.19 0 .22.22 0 01-.12-.09.43.43 0 01-.06-.16 1.23 1.23 0 010-.19v-.14a1.32 1.32 0 010-.19.68.68 0 01.06-.19.42.42 0 01.12-.15.38.38 0 01.19-.08l1-.16a.38.38 0 01.19 0 .26.26 0 01.12.08.32.32 0 01.06.13.72.72 0 010 .14v.11a.84.84 0 010 .15.49.49 0 01-.17.29.55.55 0 01-.19.1zm1.12-.72a.12.12 0 000-.05v-.11l-1.19.25a.16.16 0 000 .06v.13a.14.14 0 000 .06zm1.55 3.31a1 1 0 01-.19.16.17.17 0 01-.12 0 .08.08 0 01-.06-.06.41.41 0 010-.11v-.09a.75.75 0 010-.14.74.74 0 01.06-.17 1 1 0 01.12-.18 1.32 1.32 0 01.19-.19l1-.88.19-.14h.12a.06.06 0 01.06 0 .16.16 0 010 .07v.06a.42.42 0 010 .1.61.61 0 01-.06.13l-.12.17-.19.21zm1.12-1.34v-.07l-1.2.98v.09zm-1.12.09a.69.69 0 01-.19.11.16.16 0 01-.12 0 .12.12 0 01-.06-.08.47.47 0 010-.12v-.09a.7.7 0 010-.14.59.59 0 01.06-.15.69.69 0 01.12-.16.9.9 0 01.19-.15l1-.61.19-.09h.12a.08.08 0 01.06 0 .18.18 0 010 .07v.06a.37.37 0 010 .09.47.47 0 01-.06.12l-.12.14-.19.16zm1.12-1.05v-.07l-1.19.77v.09zm.29-.89l-.19.09-1.49.73v-.31l1.45-.64v-.08l.19-.08v.27zm-1.41-.2a.49.49 0 01-.19 0 .2.2 0 01-.12-.05.21.21 0 01-.06-.1.54.54 0 010-.12v-.09a.61.61 0 010-.13.38.38 0 01.06-.13.36.36 0 01.12-.1.53.53 0 01.19-.06l1-.16a.62.62 0 01.19 0h.12a.15.15 0 01.06.07.23.23 0 010 .08v.06a.3.3 0 010 .09.26.26 0 01-.06.09l-.12.09-.19.08zm1.12-.57v-.07l-1.19.25v.09zM27.43 19v-.1h2v.52l-2 .09V19zM30 19v-.08h2v.4l-2 .09V19zm2.61 0v-.06h2v.28l-2 .09V19zm2.61 0h2v.16l-2 .09v-.21zm2.65 4.33h-.11l-1.13 1.2h.15zM1 4.93a72.32 72.32 0 0151.17 0 .78.78 0 01.51.65q.27 2.42.32 4.88A49.37 49.37 0 0127 54.9a.78.78 0 01-.76 0 49.37 49.37 0 01-26-44.44Q.19 8 .48 5.58A.78.78 0 011 4.93z" transform="translate(-.14 -.25)" fill="#003d81" fill-rule="evenodd"/><text class="cls-3" transform="translate(245.36 23.15)">人工智能与数字经济<tspan x="0" y="24">广东省实验室</tspan></text><text class="cls-3" transform="translate(365.86 46.65)">(深圳）</text><path fill="#d1d1d1" d="M231.86 5.75h2v45h-2z"/></svg>